<svg width="45" height="57" viewBox="0 0 45 57" fill="none" xmlns="http://www.w3.org/2000/svg">
<g clip-path="url(#clip0)">
<path d="M19.6875 1.40625H2.8125C2.43954 1.40625 2.08185 1.55441 1.81813 1.81814C1.55441 2.08186 1.40625 2.43954 1.40625 2.8125V19.6875C1.40625 20.0605 1.55441 20.4182 1.81813 20.6819C2.08185 20.9456 2.43954 21.0938 2.8125 21.0938H19.6875C20.0605 21.0938 20.4181 20.9456 20.6819 20.6819C20.9456 20.4182 21.0938 20.0605 21.0938 19.6875V2.8125C21.0938 2.43954 20.9456 2.08186 20.6819 1.81814C20.4181 1.55441 20.0605 1.40625 19.6875 1.40625ZM18.2813 18.2813H4.21875V4.21875H18.2813V18.2813ZM33.75 21.0938C35.6969 21.0938 37.6001 20.5164 39.2189 19.4348C40.8377 18.3531 42.0994 16.8158 42.8444 15.017C43.5895 13.2183 43.7844 11.2391 43.4046 9.32959C43.0248 7.42008 42.0873 5.6661 40.7106 4.28942C39.3339 2.91275 37.5799 1.97522 35.6704 1.5954C33.7609 1.21558 31.7817 1.41052 29.983 2.15557C28.1843 2.90062 26.6469 4.16231 25.5652 5.78111C24.4836 7.39991 23.9063 9.3031 23.9063 11.25C23.9063 13.8607 24.9434 16.3645 26.7894 18.2106C28.6355 20.0566 31.1393 21.0938 33.75 21.0938ZM33.75 4.21875C35.1407 4.21875 36.5001 4.63113 37.6564 5.40373C38.8126 6.17634 39.7139 7.27447 40.246 8.55926C40.7782 9.84406 40.9175 11.2578 40.6461 12.6217C40.3748 13.9857 39.7052 15.2385 38.7218 16.2218C37.7385 17.2052 36.4857 17.8748 35.1217 18.1462C33.7578 18.4175 32.3441 18.2782 31.0593 17.746C29.7745 17.2139 28.6763 16.3126 27.9037 15.1564C27.1311 14.0001 26.7188 12.6407 26.7188 11.25C26.7188 9.3852 27.4595 7.59678 28.7782 6.27816C30.0968 4.95954 31.8852 4.21875 33.75 4.21875ZM19.6875 23.9063H2.8125C2.43954 23.9063 2.08185 24.0544 1.81813 24.3181C1.55441 24.5819 1.40625 24.9395 1.40625 25.3125V42.1875C1.40625 42.5605 1.55441 42.9182 1.81813 43.1819C2.08185 43.4456 2.43954 43.5938 2.8125 43.5938H19.6875C20.0605 43.5938 20.4181 43.4456 20.6819 43.1819C20.9456 42.9182 21.0938 42.5605 21.0938 42.1875V25.3125C21.0938 24.9395 20.9456 24.5819 20.6819 24.3181C20.4181 24.0544 20.0605 23.9063 19.6875 23.9063ZM18.2813 40.7813H4.21875V26.7188H18.2813V40.7813ZM42.1875 23.9063H25.3125C24.9395 23.9063 24.5819 24.0544 24.3181 24.3181C24.0544 24.5819 23.9063 24.9395 23.9063 25.3125V42.1875C23.9063 42.5605 24.0544 42.9182 24.3181 43.1819C24.5819 43.4456 24.9395 43.5938 25.3125 43.5938H42.1875C42.5605 43.5938 42.9182 43.4456 43.1819 43.1819C43.4456 42.9182 43.5938 42.5605 43.5938 42.1875V25.3125C43.5938 24.9395 43.4456 24.5819 43.1819 24.3181C42.9182 24.0544 42.5605 23.9063 42.1875 23.9063ZM40.7813 40.7813H26.7188V26.7188H40.7813V40.7813Z" fill="#5F5F5F"/>
</g>
<defs>
<clipPath id="clip0">
<rect width="45" height="56.25" fill="white"/>
</clipPath>
</defs>
</svg>
