<svg width="62" height="78" viewBox="0 0 62 78" fill="none" xmlns="http://www.w3.org/2000/svg">
<path d="M2.90625 60.0625H59.0938C59.3507 60.0625 59.5971 59.9604 59.7788 59.7788C59.9604 59.5971 60.0625 59.3507 60.0625 59.0938V2.90625C60.0625 2.64932 59.9604 2.40292 59.7788 2.22124C59.5971 2.03956 59.3507 1.9375 59.0938 1.9375H2.90625C2.64932 1.9375 2.40292 2.03956 2.22124 2.22124C2.03956 2.40292 1.9375 2.64932 1.9375 2.90625V59.0938C1.9375 59.3507 2.03956 59.5971 2.22124 59.7788C2.40292 59.9604 2.64932 60.0625 2.90625 60.0625ZM54.25 3.875H58.125V58.125H54.25V3.875ZM48.4375 3.875H52.3125V58.125H48.4375V3.875ZM42.625 3.875H46.5V58.125H42.625V3.875ZM3.875 3.875H40.6875V58.125H3.875V3.875Z" fill="#FFA822"/>
<path d="M38.75 13.5625H5.8125V15.5H38.75V13.5625Z" fill="#FFA822"/>
<path d="M38.75 17.4375H5.8125V19.375H38.75V17.4375Z" fill="#FFA822"/>
<path d="M38.75 21.3125H5.8125V23.25H38.75V21.3125Z" fill="#FFA822"/>
<path d="M38.75 25.1875H5.8125V27.125H38.75V25.1875Z" fill="#FFA822"/>
<path d="M38.75 29.0625H5.8125V31H38.75V29.0625Z" fill="#FFA822"/>
<path d="M38.75 32.9375H24.2188V34.875H38.75V32.9375Z" fill="#FFA822"/>
<path d="M38.75 36.8125H24.2188V38.75H38.75V36.8125Z" fill="#FFA822"/>
<path d="M38.75 40.6875H24.2188V42.625H38.75V40.6875Z" fill="#FFA822"/>
<path d="M38.75 44.5625H24.2188V46.5H38.75V44.5625Z" fill="#FFA822"/>
<path d="M38.75 48.4375H24.2188V50.375H38.75V48.4375Z" fill="#FFA822"/>
<path d="M38.75 52.3125H24.2188V54.25H38.75V52.3125Z" fill="#FFA822"/>
<path d="M22.2812 45.5312V33.9062C22.2812 33.6493 22.1792 33.4029 21.9975 33.2212C21.8158 33.0396 21.5694 32.9375 21.3125 32.9375H6.78125C6.52432 32.9375 6.27792 33.0396 6.09624 33.2212C5.91456 33.4029 5.8125 33.6493 5.8125 33.9062V45.5312C5.8125 45.7882 5.91456 46.0346 6.09624 46.2163C6.27792 46.3979 6.52432 46.5 6.78125 46.5H21.3125C21.5694 46.5 21.8158 46.3979 21.9975 46.2163C22.1792 46.0346 22.2812 45.7882 22.2812 45.5312ZM20.3438 44.5625H7.75V34.875H20.3438V44.5625Z" fill="#FFA822"/>
<path d="M20.3438 48.4375H7.75V50.375H20.3438V48.4375Z" fill="#FFA822"/>
<path d="M20.3438 52.3125H7.75V54.25H20.3438V52.3125Z" fill="#FFA822"/>
<path d="M31.9688 7.75H12.5938V9.6875H31.9688V7.75Z" fill="#FFA822"/>
</svg>
