<svg width="54" height="54" viewBox="0 0 54 54" fill="none" xmlns="http://www.w3.org/2000/svg">
<path d="M48.375 9H43.5V12H48V45H5.99996V12H10.5V9H5.62496C5.27431 9.00586 4.92826 9.08074 4.60656 9.22036C4.28486 9.35998 3.99381 9.56161 3.75005 9.81374C3.50629 10.0659 3.31458 10.3635 3.18588 10.6898C3.05717 11.016 2.994 11.3644 2.99996 11.715V45.285C2.994 45.6356 3.05717 45.984 3.18588 46.3102C3.31458 46.6365 3.50629 46.9341 3.75005 47.1863C3.99381 47.4384 4.28486 47.64 4.60656 47.7796C4.92826 47.9192 5.27431 47.9941 5.62496 48H48.375C48.7256 47.9941 49.0717 47.9192 49.3934 47.7796C49.7151 47.64 50.0061 47.4384 50.2499 47.1863C50.4936 46.9341 50.6853 46.6365 50.814 46.3102C50.9428 45.984 51.0059 45.6356 51 45.285V11.715C51.0059 11.3644 50.9428 11.016 50.814 10.6898C50.6853 10.3635 50.4936 10.0659 50.2499 9.81374C50.0061 9.56161 49.7151 9.35998 49.3934 9.22036C49.0717 9.08074 48.7256 9.00586 48.375 9Z" fill="#00577F"/>
<path d="M12 21H15V24H12V21Z" fill="#00577F"/>
<path d="M21 21H24V24H21V21Z" fill="#00577F"/>
<path d="M30 21H33V24H30V21Z" fill="#00577F"/>
<path d="M39 21H42V24H39V21Z" fill="#00577F"/>
<path d="M12 28.5H15V31.5H12V28.5Z" fill="#00577F"/>
<path d="M21 28.5H24V31.5H21V28.5Z" fill="#00577F"/>
<path d="M30 28.5H33V31.5H30V28.5Z" fill="#00577F"/>
<path d="M39 28.5H42V31.5H39V28.5Z" fill="#00577F"/>
<path d="M12 36H15V39H12V36Z" fill="#00577F"/>
<path d="M21 36H24V39H21V36Z" fill="#00577F"/>
<path d="M30 36H33V39H30V36Z" fill="#00577F"/>
<path d="M39 36H42V39H39V36Z" fill="#00577F"/>
<path d="M15 15C15.3978 15 15.7794 14.842 16.0607 14.5607C16.342 14.2794 16.5 13.8978 16.5 13.5V4.5C16.5 4.10218 16.342 3.72064 16.0607 3.43934C15.7794 3.15804 15.3978 3 15 3C14.6022 3 14.2206 3.15804 13.9393 3.43934C13.658 3.72064 13.5 4.10218 13.5 4.5V13.5C13.5 13.8978 13.658 14.2794 13.9393 14.5607C14.2206 14.842 14.6022 15 15 15Z" fill="#00577F"/>
<path d="M39 15C39.3978 15 39.7793 14.842 40.0607 14.5607C40.342 14.2794 40.5 13.8978 40.5 13.5V4.5C40.5 4.10218 40.342 3.72064 40.0607 3.43934C39.7793 3.15804 39.3978 3 39 3C38.6022 3 38.2206 3.15804 37.9393 3.43934C37.658 3.72064 37.5 4.10218 37.5 4.5V13.5C37.5 13.8978 37.658 14.2794 37.9393 14.5607C38.2206 14.842 38.6022 15 39 15Z" fill="#00577F"/>
<path d="M19.5 9H34.5V12H19.5V9Z" fill="#00577F"/>
</svg>
