<svg width="55" height="55" viewBox="0 0 55 55" fill="none" xmlns="http://www.w3.org/2000/svg">
<path d="M49.2709 9.16666H44.3056V12.2222H48.8889V45.8333H6.11112V12.2222H10.6945V9.16666H5.72918C5.37204 9.17262 5.01958 9.24889 4.69192 9.3911C4.36426 9.53331 4.06783 9.73867 3.81955 9.99546C3.57127 10.2523 3.37602 10.5554 3.24493 10.8877C3.11384 11.22 3.0495 11.5748 3.05557 11.9319V46.1236C3.0495 46.4807 3.11384 46.8356 3.24493 47.1678C3.37602 47.5001 3.57127 47.8033 3.81955 48.0601C4.06783 48.3169 4.36426 48.5222 4.69192 48.6644C5.01958 48.8066 5.37204 48.8829 5.72918 48.8889H49.2709C49.628 48.8829 49.9804 48.8066 50.3081 48.6644C50.6358 48.5222 50.9322 48.3169 51.1805 48.0601C51.4288 47.8033 51.624 47.5001 51.7551 47.1678C51.8862 46.8356 51.9505 46.4807 51.9445 46.1236V11.9319C51.9505 11.5748 51.8862 11.22 51.7551 10.8877C51.624 10.5554 51.4288 10.2523 51.1805 9.99546C50.9322 9.73867 50.6358 9.53331 50.3081 9.3911C49.9804 9.24889 49.628 9.17262 49.2709 9.16666Z" fill="#5F5F5F"/>
<path d="M12.2222 21.3889H15.2777V24.4444H12.2222V21.3889Z" fill="#5F5F5F"/>
<path d="M21.3889 21.3889H24.4445V24.4444H21.3889V21.3889Z" fill="#5F5F5F"/>
<path d="M30.5555 21.3889H33.6111V24.4444H30.5555V21.3889Z" fill="#5F5F5F"/>
<path d="M39.7222 21.3889H42.7777V24.4444H39.7222V21.3889Z" fill="#5F5F5F"/>
<path d="M12.2222 29.0278H15.2777V32.0833H12.2222V29.0278Z" fill="#5F5F5F"/>
<path d="M21.3889 29.0278H24.4445V32.0833H21.3889V29.0278Z" fill="#5F5F5F"/>
<path d="M30.5555 29.0278H33.6111V32.0833H30.5555V29.0278Z" fill="#5F5F5F"/>
<path d="M39.7222 29.0278H42.7777V32.0833H39.7222V29.0278Z" fill="#5F5F5F"/>
<path d="M12.2222 36.6667H15.2777V39.7222H12.2222V36.6667Z" fill="#5F5F5F"/>
<path d="M21.3889 36.6667H24.4445V39.7222H21.3889V36.6667Z" fill="#5F5F5F"/>
<path d="M30.5555 36.6667H33.6111V39.7222H30.5555V36.6667Z" fill="#5F5F5F"/>
<path d="M39.7222 36.6667H42.7777V39.7222H39.7222V36.6667Z" fill="#5F5F5F"/>
<path d="M15.2778 15.2778C15.683 15.2778 16.0716 15.1168 16.3581 14.8303C16.6446 14.5438 16.8056 14.1552 16.8056 13.75V4.58332C16.8056 4.17813 16.6446 3.78953 16.3581 3.50302C16.0716 3.2165 15.683 3.05554 15.2778 3.05554C14.8726 3.05554 14.484 3.2165 14.1975 3.50302C13.911 3.78953 13.75 4.17813 13.75 4.58332V13.75C13.75 14.1552 13.911 14.5438 14.1975 14.8303C14.484 15.1168 14.8726 15.2778 15.2778 15.2778Z" fill="#5F5F5F"/>
<path d="M39.7222 15.2778C40.1274 15.2778 40.516 15.1168 40.8025 14.8303C41.0891 14.5438 41.25 14.1552 41.25 13.75V4.58332C41.25 4.17813 41.0891 3.78953 40.8025 3.50302C40.516 3.2165 40.1274 3.05554 39.7222 3.05554C39.317 3.05554 38.9284 3.2165 38.6419 3.50302C38.3554 3.78953 38.1945 4.17813 38.1945 4.58332V13.75C38.1945 14.1552 38.3554 14.5438 38.6419 14.8303C38.9284 15.1168 39.317 15.2778 39.7222 15.2778Z" fill="#5F5F5F"/>
<path d="M19.8611 9.16666H35.1389V12.2222H19.8611V9.16666Z" fill="#5F5F5F"/>
</svg>
