<svg width="33" height="33" viewBox="0 0 33 33" fill="none" xmlns="http://www.w3.org/2000/svg">
<path d="M28.875 6.1875H4.125C3.57799 6.1875 3.05339 6.4048 2.66659 6.79159C2.2798 7.17839 2.0625 7.70299 2.0625 8.25V24.75C2.0625 25.297 2.2798 25.8216 2.66659 26.2084C3.05339 26.5952 3.57799 26.8125 4.125 26.8125H28.875C29.422 26.8125 29.9466 26.5952 30.3334 26.2084C30.7202 25.8216 30.9375 25.297 30.9375 24.75V8.25C30.9375 7.70299 30.7202 7.17839 30.3334 6.79159C29.9466 6.4048 29.422 6.1875 28.875 6.1875ZM26.6063 8.25L16.5 15.2419L6.39375 8.25H26.6063ZM4.125 24.75V9.18844L15.9122 17.3456C16.0848 17.4654 16.2899 17.5296 16.5 17.5296C16.7101 17.5296 16.9152 17.4654 17.0878 17.3456L28.875 9.18844V24.75H4.125Z" fill="#7FFFD4"/>
</svg>
