<svg width="57" height="59" viewBox="0 0 57 59" fill="none" xmlns="http://www.w3.org/2000/svg">
<g filter="url(#filter0_d)">
<path d="M43.852 5.36167C43.4684 5.1696 43.0369 5.08132 42.6044 5.10644C42.1718 5.13156 41.7548 5.26911 41.3986 5.50415L10.5236 25.8575C10.2091 26.0666 9.95221 26.3449 9.77483 26.6687C9.59745 26.9925 9.50482 27.3524 9.50482 27.7176C9.50482 28.0829 9.59745 28.4427 9.77483 28.7666C9.95221 29.0904 10.2091 29.3687 10.5236 29.5777L41.3986 49.9311C41.7549 50.1659 42.1719 50.3033 42.6044 50.3286C43.0368 50.3539 43.4684 50.2661 43.8522 50.0746C44.236 49.8832 44.5575 49.5954 44.7818 49.2424C45.0062 48.8894 45.1248 48.4847 45.125 48.0722V7.36535C45.1251 6.95255 45.0065 6.5476 44.7821 6.1944C44.5577 5.84119 44.236 5.55322 43.852 5.36167ZM40.375 43.755L16.0479 27.7188L40.375 11.6825V43.755Z" fill="#F5776E"/>
</g>
<defs>
<filter id="filter0_d" x="5.50482" y="5.10225" width="43.6202" height="53.2306" filterUnits="userSpaceOnUse" color-interpolation-filters="sRGB">
<feFlood flood-opacity="0" result="BackgroundImageFix"/>
<feColorMatrix in="SourceAlpha" type="matrix" values="0 0 0 0 0 0 0 0 0 0 0 0 0 0 0 0 0 0 127 0"/>
<feOffset dy="4"/>
<feGaussianBlur stdDeviation="2"/>
<feColorMatrix type="matrix" values="0 0 0 0 0 0 0 0 0 0 0 0 0 0 0 0 0 0 0.25 0"/>
<feBlend mode="normal" in2="BackgroundImageFix" result="effect1_dropShadow"/>
<feBlend mode="normal" in="SourceGraphic" in2="effect1_dropShadow" result="shape"/>
</filter>
</defs>
</svg>
