<svg width="100" height="125" viewBox="0 0 100 125" fill="none" xmlns="http://www.w3.org/2000/svg">
<path d="M94.004 36.9671C94.002 35.6311 93.609 34.2761 92.74 33.1591L85.767 24.2371C84.599 22.7541 82.822 21.9991 81.046 21.9961C79.989 21.9961 78.913 22.2671 77.962 22.8601L71.163 27.0901C70.448 27.5461 69.222 27.8591 68.038 27.8511C67.118 27.8551 66.229 27.6711 65.642 27.3811L58.984 24.1561C57.91 23.6391 56.713 23.4271 55.509 23.4251C53.78 23.4331 52.029 23.8581 50.622 24.8331L49.845 25.3781C49.224 25.0681 48.275 24.5961 47.2 24.0611C45.911 23.4291 44.395 23.1741 42.864 23.1691C41.481 23.1731 40.098 23.3861 38.884 23.8991L34.349 25.8341C33.611 26.1541 32.437 26.3631 31.271 26.3581C30.105 26.3631 28.933 26.1541 28.195 25.8341L23.656 23.8981C22.828 23.5451 21.943 23.3941 21.066 23.3931C20.056 23.3941 19.052 23.5931 18.119 23.9711C17.187 24.3511 16.322 24.9121 15.633 25.6821L7.36901 34.9371C6.45301 35.9601 5.99801 37.2481 6.00001 38.5161C5.99801 40.0281 6.64501 41.5451 7.89301 42.6081L15.602 49.1851L11.945 53.0001C10.937 54.0521 10.435 55.4161 10.435 56.7651C10.433 58.2001 11.003 59.6491 12.132 60.7161L12.874 61.4211C13.573 62.0841 14.413 62.5061 15.292 62.7311C14.851 63.5421 14.61 64.4311 14.612 65.3221C14.61 66.7581 15.18 68.2061 16.307 69.2741L16.305 69.2731L17.049 69.9811C18.108 70.9851 19.481 71.4851 20.834 71.4841C21.561 71.4851 22.289 71.3391 22.973 71.0531C23.213 72.0271 23.709 72.9531 24.489 73.6931L25.233 74.4011C26.292 75.4051 27.663 75.9051 29.018 75.9041C30.077 75.9051 31.141 75.5931 32.057 74.9871C32.325 75.8491 32.784 76.6661 33.483 77.3301L34.227 78.0381C35.284 79.0421 36.657 79.5421 38.01 79.5411C39.451 79.5421 40.906 78.9761 41.981 77.8541L45.213 74.4791L49.604 78.5431C50.655 79.5181 52.004 80.0031 53.336 80.0001C54.799 80.0031 56.275 79.4171 57.352 78.2641L58.053 77.5131C58.658 76.8631 59.053 76.0941 59.282 75.2911L60.983 76.8611C62.036 77.8321 63.383 78.3151 64.713 78.3141C66.178 78.3151 67.658 77.7291 68.736 76.5751L69.433 75.8251C70.238 74.9651 70.691 73.9001 70.831 72.8121C71.28 72.9271 71.735 73.0051 72.194 73.0051C73.659 73.0051 75.135 72.4201 76.214 71.2671L76.913 70.5171C77.89 69.4701 78.376 68.1271 78.374 66.8031C78.374 66.3921 78.315 65.9831 78.224 65.5791C79.439 65.4181 80.617 64.8761 81.513 63.9141L82.214 63.1631C83.191 62.1161 83.675 60.7731 83.675 59.4481C83.677 57.9901 83.089 56.5191 81.929 55.4471L80.618 54.2361L92.45 41.1541C93.512 39.9761 94.002 38.4601 94.004 36.9671ZM14.197 58.5621C13.683 58.0761 13.429 57.4291 13.427 56.7651C13.429 56.1421 13.652 55.5341 14.111 55.0551L21.601 47.2391C22.089 46.7301 22.74 46.4751 23.408 46.4741C24.033 46.4751 24.644 46.7001 25.127 47.1551L25.867 47.8611C25.867 47.8611 26.633 48.9941 26.635 49.6591C26.633 50.1571 26.483 50.6421 26.192 51.0621C26.167 51.0871 18.108 59.4861 18.108 59.4861C17.68 59.7891 17.174 59.9451 16.659 59.9471C16.032 59.9451 15.419 59.7211 14.94 59.2671L14.197 58.5621ZM20.836 68.5061C20.209 68.5051 19.598 68.2801 19.117 67.8261L18.373 67.1191L18.371 67.1181C17.861 66.6341 17.605 65.9851 17.605 65.3211C17.605 64.6981 17.83 64.0901 18.287 63.6111C18.287 63.6111 28.271 53.2181 28.355 53.1181C28.832 52.6591 29.447 52.4221 30.082 52.4211C30.709 52.4221 31.32 52.6461 31.801 53.1011L32.545 53.8091C33.057 54.2931 33.311 54.9411 33.313 55.6061C33.311 56.2291 33.086 56.8381 32.629 57.3171L22.641 67.7431C22.154 68.2501 21.504 68.5041 20.836 68.5061ZM29.02 72.9261C28.393 72.9251 27.782 72.7001 27.301 72.2451L26.555 71.5381C26.043 71.0531 25.787 70.4051 25.787 69.7411C25.787 69.1851 25.976 68.6461 26.338 68.1971L33.291 60.9401C33.76 60.5171 34.348 60.2941 34.957 60.2941C35.584 60.2951 36.195 60.5191 36.676 60.9741L37.422 61.6821C37.932 62.1661 38.188 62.8141 38.19 63.4781C38.188 64.1021 37.961 64.7111 37.506 65.1891L30.824 72.1621C30.338 72.6701 29.688 72.9241 29.02 72.9261ZM39.816 75.7991C39.33 76.3071 38.679 76.5611 38.011 76.5631C37.384 76.5621 36.773 76.3371 36.292 75.8821L35.548 75.1751C35.038 74.6911 34.782 74.0421 34.78 73.3781C34.782 72.7541 35.007 72.1451 35.464 71.6681L39.681 67.2651C40.169 66.7571 40.82 66.5021 41.488 66.5011C42.113 66.5021 42.726 66.7261 43.207 67.1821L43.953 67.8891C44.463 68.3731 44.717 69.0211 44.719 69.6851C44.717 70.3091 44.492 70.9181 44.035 71.3961L39.816 75.7991ZM80.023 61.1381L79.324 61.8881C78.836 62.4101 78.174 62.6741 77.496 62.6751C76.881 62.6741 76.279 62.4581 75.801 62.0161L64.021 51.1221L61.984 53.3031L74.593 64.9841C75.118 65.4701 75.382 66.1301 75.386 66.8041C75.382 67.4181 75.165 68.0161 74.722 68.4921L74.025 69.2421C73.537 69.7641 72.875 70.0271 72.197 70.0291C71.582 70.0271 70.978 69.8101 70.504 69.3711L58.721 58.4771L56.686 60.6581L67.143 70.3281C67.647 70.8111 67.905 71.4541 67.905 72.1141C67.905 72.7261 67.688 73.3251 67.245 73.8001L66.546 74.5501C66.06 75.0721 65.396 75.3361 64.716 75.3381C64.099 75.3361 63.497 75.1191 63.021 74.6801L52.585 65.0451H52.583L52.581 65.0431L50.55 67.2281L50.552 67.2301L50.591 67.2671L55.818 72.0911C56.281 72.5671 56.521 73.1771 56.523 73.8081C56.521 74.4171 56.306 75.0131 55.863 75.4881L55.164 76.2391C54.676 76.7611 54.016 77.0231 53.34 77.0251C52.725 77.0231 52.123 76.8071 51.647 76.3661L47.096 72.1521C47.492 71.3751 47.713 70.5321 47.713 69.6861C47.715 68.2511 47.145 66.8041 46.018 65.7351L45.272 65.0271C44.215 64.0241 42.844 63.5231 41.491 63.5251C41.386 63.5251 41.28 63.5491 41.177 63.5551C41.177 63.5301 41.183 63.5041 41.183 63.4791C41.185 62.0441 39.488 59.5261 39.488 59.5261L38.744 58.8201C37.953 58.0701 36.988 57.6021 35.984 57.4141C36.191 56.8281 36.308 56.2181 36.308 55.6071C36.308 54.1721 35.74 52.7241 34.613 51.6561L33.869 50.9481C32.81 49.9441 31.439 49.4431 30.086 49.4441C29.928 49.4441 29.772 49.4761 29.615 49.4901C29.572 48.1121 29.017 46.7351 27.937 45.7091V45.7081L27.195 45.0031C26.136 43.9981 24.765 43.4971 23.412 43.4981C21.969 43.4971 20.516 44.0631 19.441 45.1851L17.673 47.0301L9.84101 40.3501C9.27801 39.8681 8.99701 39.2021 8.99501 38.5181C8.99701 37.9451 9.19201 37.3841 9.60801 36.9181L17.872 27.6631C18.2 27.2951 18.685 26.9621 19.253 26.7311C19.821 26.5001 20.466 26.3731 21.069 26.3741C21.594 26.3741 22.087 26.4691 22.481 26.6391L27.018 28.5751C28.297 29.1141 29.782 29.3351 31.274 29.3401C32.768 29.3351 34.251 29.1141 35.53 28.5751L40.065 26.6401C40.764 26.3351 41.819 26.1461 42.868 26.1501C44.028 26.1431 45.19 26.3831 45.864 26.7271C46.292 26.9401 46.698 27.1421 47.075 27.3311L42.45 30.5821C40.964 31.6271 40.163 33.2891 40.165 34.9661C40.163 36.0761 40.515 37.2061 41.231 38.1651L41.229 38.1631L41.84 38.9841C43 40.5261 44.809 41.3191 46.617 41.3231C47.638 41.3231 48.678 41.0651 49.605 40.5091L52.371 38.8481C52.935 38.5031 53.787 38.2851 54.668 38.2891C55.703 38.2831 56.746 38.5891 57.373 39.0501L65.025 44.5361C66.728 45.7561 69.502 48.0191 71.039 49.4431L79.896 57.6321C80.421 58.1191 80.685 58.7761 80.687 59.4511C80.686 60.0631 80.467 60.6621 80.023 61.1381ZM90.229 39.1631L78.43 52.2101L73.073 47.2581C71.395 45.7091 68.628 43.4501 66.772 42.1171L59.122 36.6311C57.825 35.7121 56.237 35.3151 54.667 35.3091C53.331 35.3131 51.985 35.6041 50.823 36.2961L48.059 37.9571C47.635 38.2121 47.135 38.3421 46.616 38.3431C45.688 38.3461 44.759 37.9131 44.241 37.2081L43.632 36.3881L43.63 36.3861C43.306 35.9491 43.155 35.4591 43.153 34.9631C43.157 34.2131 43.503 33.4851 44.173 33.0121L52.351 27.2661C53.058 26.7541 54.316 26.3951 55.511 26.4041C56.341 26.4001 57.134 26.5671 57.677 26.8351L64.335 30.0601C65.47 30.6051 66.751 30.8281 68.04 30.8311C69.696 30.8231 71.37 30.4631 72.749 29.6161L79.55 25.3851C79.984 25.1141 80.505 24.9741 81.048 24.9741C81.966 24.9721 82.886 25.3881 83.407 26.0671L90.38 34.9891C90.782 35.5001 91.015 36.2211 91.015 36.9681C91.016 37.8041 90.721 38.6261 90.229 39.1631Z" fill="#00577F"/>
</svg>
