<svg width="30" height="30" viewBox="0 0 30 30" fill="none" xmlns="http://www.w3.org/2000/svg">
<path d="M24.375 27.1875H24.2157C5.79375 26.1281 3.17811 10.5844 2.81249 5.84063C2.78303 5.47179 2.82663 5.10077 2.94081 4.74882C3.05498 4.39687 3.23748 4.07091 3.47785 3.78961C3.71822 3.50831 4.01173 3.27721 4.34156 3.10954C4.6714 2.94187 5.03108 2.84093 5.39999 2.8125H10.5656C10.9412 2.81214 11.3081 2.92454 11.619 3.13515C11.9299 3.34576 12.1704 3.64488 12.3094 3.99375L13.7344 7.5C13.8716 7.84083 13.9056 8.21445 13.8323 8.57446C13.759 8.93447 13.5815 9.26501 13.3219 9.525L11.325 11.5406C11.6369 13.3132 12.4858 14.9472 13.7568 16.2215C15.0278 17.4959 16.6595 18.349 18.4313 18.6656L20.4657 16.65C20.7296 16.3933 21.0632 16.2199 21.425 16.1516C21.7868 16.0832 22.1607 16.1229 22.5 16.2656L26.0344 17.6813C26.378 17.8246 26.6712 18.067 26.8766 18.3775C27.0819 18.6881 27.1902 19.0527 27.1875 19.425V24.375C27.1875 25.1209 26.8912 25.8363 26.3638 26.3637C25.8363 26.8912 25.121 27.1875 24.375 27.1875ZM5.62499 4.6875C5.37635 4.6875 5.1379 4.78627 4.96208 4.96209C4.78627 5.1379 4.68749 5.37636 4.68749 5.625V5.7C5.11874 11.25 7.88438 24.375 24.3188 25.3125C24.442 25.3201 24.5654 25.3033 24.6821 25.2631C24.7987 25.2229 24.9063 25.1601 24.9986 25.0782C25.091 24.9963 25.1662 24.897 25.2201 24.786C25.274 24.675 25.3054 24.5544 25.3125 24.4312V19.425L21.7782 18.0094L19.0875 20.6812L18.6375 20.625C10.4813 19.6031 9.375 11.4469 9.375 11.3625L9.31875 10.9125L11.9813 8.22188L10.575 4.6875H5.62499Z" fill="white"/>
</svg>
