<svg width="81" height="101" viewBox="0 0 81 101" fill="none" xmlns="http://www.w3.org/2000/svg">
<path d="M40.2764 2.01169C40.0722 2.0147 39.8776 2.09852 39.7352 2.24481C39.5928 2.39111 39.5142 2.58793 39.5167 2.79208V11.2253C39.5167 11.4299 39.598 11.6261 39.7426 11.7707C39.8873 11.9154 40.0834 11.9967 40.288 11.9967C40.4926 11.9967 40.6888 11.9154 40.8334 11.7707C40.9781 11.6261 41.0594 11.4299 41.0594 11.2253V2.79208C41.0606 2.68903 41.0412 2.58677 41.0023 2.49135C40.9633 2.39593 40.9057 2.30926 40.8327 2.23651C40.7597 2.16375 40.6728 2.10641 40.5773 2.06779C40.4817 2.02917 40.3794 2.01009 40.2764 2.01169ZM55.3589 6.04825C55.2207 6.04706 55.0848 6.08301 54.9653 6.15233C54.8458 6.22166 54.7471 6.32183 54.6796 6.44234L50.4633 13.7454C50.4088 13.8333 50.3724 13.9312 50.3564 14.0333C50.3405 14.1355 50.3452 14.2398 50.3704 14.3401C50.3956 14.4404 50.4406 14.5346 50.5029 14.6171C50.5652 14.6996 50.6435 14.7687 50.7331 14.8204C50.8226 14.872 50.9217 14.9051 51.0243 14.9177C51.1269 14.9303 51.231 14.9222 51.3304 14.8937C51.4299 14.8653 51.5225 14.8172 51.6029 14.7522C51.6834 14.6872 51.7499 14.6067 51.7986 14.5155L56.0153 7.21183C56.085 7.09523 56.1227 6.96229 56.1245 6.82646C56.1263 6.69063 56.0922 6.55672 56.0256 6.43831C55.959 6.31989 55.8624 6.22119 55.7454 6.15215C55.6284 6.0831 55.4952 6.04619 55.3594 6.04514L55.3589 6.04825ZM25.078 6.04853V6.04853C24.9441 6.05356 24.8136 6.09336 24.6998 6.16403C24.586 6.23469 24.4926 6.33378 24.4288 6.45153C24.3649 6.56928 24.3329 6.70159 24.3357 6.83551C24.3386 6.96942 24.3763 7.1003 24.4451 7.21522L28.6618 14.5189C28.7105 14.6101 28.777 14.6907 28.8574 14.7557C28.9378 14.8207 29.0305 14.869 29.13 14.8975C29.2294 14.9259 29.3336 14.9341 29.4362 14.9215C29.5389 14.9089 29.6379 14.8758 29.7276 14.8241C29.8172 14.7725 29.8955 14.7033 29.9578 14.6207C30.0201 14.5382 30.0652 14.4439 30.0903 14.3436C30.1154 14.2433 30.1202 14.1389 30.1042 14.0367C30.0881 13.9346 30.0517 13.8366 29.9971 13.7488L25.7803 6.44569C25.7109 6.32161 25.6086 6.21914 25.4846 6.14959C25.3606 6.08005 25.2198 6.04613 25.0777 6.05159L25.078 6.04853ZM40.288 14.2757C32.8123 14.2757 26.7712 20.3309 26.7712 27.8202V33.4468V39.0276C26.1723 38.6024 25.4386 38.3561 24.653 38.3691C22.6748 38.3934 21.08 40.044 21.1075 42.0258V44.1933C21.1075 53.6138 27.9009 61.4724 36.8351 63.1138V71.5284H32.91C31.0095 71.5284 29.456 73.0866 29.456 74.9886C29.456 76.8916 31.009 78.4485 32.91 78.4485H47.6684C49.5689 78.4485 51.1227 76.8903 51.1227 74.9886C51.1227 73.0855 49.5696 71.5284 47.6684 71.5284H43.7436V63.1138C52.6777 61.4726 59.4711 53.6138 59.4711 44.1933V42.0154L59.4706 42.0215C59.4919 40.0251 57.8657 38.3765 55.8717 38.3765C55.1043 38.3765 54.3913 38.6097 53.8053 39.035V33.4449V27.8182C53.8053 20.3289 47.7644 14.2737 40.2886 14.2737L40.288 14.2757ZM40.288 15.8183C46.9344 15.8183 52.2629 21.1572 52.2629 27.8207V32.6765H28.3136V27.8207C28.3136 21.1572 33.6416 15.8183 40.288 15.8183ZM14.1087 17.0784C13.9356 17.0718 13.7654 17.1238 13.6254 17.2259C13.4854 17.3279 13.3839 17.4742 13.3372 17.641C13.2904 17.8078 13.3013 17.9854 13.3679 18.1454C13.4345 18.3053 13.553 18.4381 13.7043 18.5225L21.0077 22.739C21.0955 22.7936 21.1934 22.8299 21.2955 22.8459C21.3977 22.8619 21.502 22.8571 21.6023 22.832C21.7026 22.8068 21.7968 22.7617 21.8793 22.6994C21.9618 22.6371 22.031 22.5589 22.0826 22.4693C22.1343 22.3797 22.1674 22.2807 22.18 22.178C22.1926 22.0754 22.1845 21.9713 22.156 21.8719C22.1276 21.7725 22.0794 21.6798 22.0144 21.5994C21.9494 21.519 21.8689 21.4524 21.7777 21.4038L14.4746 17.1875C14.3633 17.123 14.2376 17.0874 14.109 17.0838L14.1087 17.0784ZM66.4056 17.0784C66.2586 17.0721 66.1128 17.1081 65.9856 17.1821L58.6822 21.3983C58.591 21.447 58.5105 21.5135 58.4455 21.5939C58.3805 21.6743 58.3323 21.767 58.3039 21.8664C58.2755 21.9658 58.2673 22.0699 58.2799 22.1726C58.2925 22.2752 58.3256 22.3743 58.3773 22.4638C58.4289 22.5534 58.4981 22.6316 58.5806 22.6939C58.6631 22.7562 58.7573 22.8013 58.8576 22.8265C58.9579 22.8517 59.0622 22.8564 59.1644 22.8404C59.2665 22.8245 59.3644 22.7881 59.4522 22.7336L66.7559 18.517C66.9032 18.4348 67.0196 18.3066 67.087 18.1519C67.1545 17.9972 67.1693 17.8247 67.1293 17.6607C67.0893 17.4968 66.9966 17.3506 66.8655 17.2444C66.7343 17.1382 66.5719 17.0779 66.4033 17.0729L66.4056 17.0784ZM40.5108 17.5891C40.4092 17.5887 40.3085 17.6083 40.2146 17.6469C40.1206 17.6855 40.0352 17.7423 39.9633 17.8139C39.8913 17.8856 39.8342 17.9707 39.7952 18.0645C39.7563 18.1583 39.7362 18.2589 39.7362 18.3604C39.7362 18.462 39.7563 18.5626 39.7952 18.6563C39.8342 18.7501 39.8913 18.8353 39.9633 18.907C40.0352 18.9787 40.1206 19.0354 40.2146 19.074C40.3085 19.1125 40.4092 19.1322 40.5108 19.1318C40.8166 19.1318 41.1174 19.147 41.413 19.1838C41.7086 19.2081 42.0016 19.2613 42.2867 19.3133C42.5744 19.3653 42.8545 19.4429 43.1294 19.5207C43.4043 19.5983 43.6738 19.702 43.9383 19.8139C44.2001 19.9176 44.4568 20.0471 44.7057 20.182C44.9651 20.3119 45.1957 20.4621 45.4291 20.6202C45.6623 20.7759 45.888 20.9443 46.1058 21.1232C46.3132 21.3044 46.531 21.4888 46.7307 21.6858C46.8017 21.7601 46.8869 21.8195 46.9812 21.8604C47.0755 21.9013 47.177 21.9229 47.2798 21.924C47.3826 21.9251 47.4846 21.9057 47.5798 21.8668C47.6749 21.8279 47.7614 21.7703 47.834 21.6975C47.9066 21.6248 47.9639 21.5382 48.0025 21.443C48.0412 21.3477 48.0604 21.2457 48.0591 21.1429C48.0577 21.0401 48.0359 20.9386 47.9947 20.8444C47.9536 20.7502 47.894 20.6651 47.8195 20.5943C47.5863 20.361 47.3425 20.1406 47.0858 19.9305C46.8264 19.7231 46.5647 19.5235 46.2899 19.3394C46.0149 19.1582 45.7324 18.9842 45.4395 18.826C45.1463 18.6703 44.8457 18.5253 44.5346 18.3931C44.2261 18.2635 43.9072 18.1599 43.5831 18.0482C43.259 17.9445 42.9297 17.867 42.5927 17.7888C42.2556 17.7113 41.9134 17.6593 41.566 17.6331C41.2186 17.6088 40.8659 17.5811 40.5082 17.5811L40.5108 17.5891ZM48.9035 22.5536C48.7699 22.5556 48.6391 22.5922 48.5239 22.6599C48.4087 22.7276 48.3131 22.8241 48.2465 22.94C48.1798 23.0558 48.1444 23.1869 48.1437 23.3205C48.143 23.4542 48.177 23.5857 48.2424 23.7022C48.3723 23.9616 48.5018 24.2052 48.6106 24.467C48.6501 24.5603 48.7076 24.6449 48.7797 24.716C48.8519 24.7871 48.9374 24.8432 49.0313 24.8813C49.1252 24.9193 49.2257 24.9385 49.327 24.9377C49.4283 24.9369 49.5285 24.9162 49.6218 24.8767C49.7151 24.8372 49.7997 24.7797 49.8707 24.7075C49.9418 24.6353 49.998 24.5498 50.036 24.4559C50.074 24.362 50.0932 24.2615 50.0924 24.1602C50.0916 24.0589 50.0709 23.9588 50.0314 23.8655C49.9019 23.557 49.7565 23.2562 49.5958 22.9658C49.5296 22.84 49.43 22.7348 49.3078 22.6621C49.1856 22.5893 49.0457 22.5518 48.9035 22.5536ZM50.0081 26.1204C49.9005 26.122 49.7944 26.1462 49.6966 26.1913C49.5989 26.2364 49.5117 26.3014 49.4406 26.3822C49.3696 26.4631 49.3162 26.5579 49.284 26.6606C49.2518 26.7633 49.2414 26.8716 49.2536 26.9786C49.2779 27.2741 49.3056 27.5723 49.3056 27.8756C49.3052 27.9772 49.3248 28.0778 49.3633 28.1718C49.4019 28.2657 49.4587 28.3512 49.5303 28.4231C49.602 28.4951 49.6872 28.5522 49.781 28.5912C49.8748 28.6301 49.9753 28.6502 50.0769 28.6502C50.1785 28.6502 50.279 28.6301 50.3728 28.5912C50.4666 28.5522 50.5518 28.4951 50.6234 28.4231C50.6951 28.3512 50.7518 28.2657 50.7904 28.1718C50.829 28.0778 50.8486 27.9772 50.8482 27.8756C50.8482 27.5205 50.83 27.1679 50.7965 26.823C50.7799 26.6285 50.69 26.4476 50.5452 26.3167C50.4004 26.1858 50.2113 26.1147 50.0161 26.1178L50.0081 26.1204ZM28.3147 34.2212H52.2639V44.2244C52.2639 50.8879 46.9354 56.2265 40.2891 56.2265C33.6427 56.2265 28.3147 50.8879 28.3147 44.2244V34.2212ZM24.6761 39.9133C25.8454 39.8981 26.7814 40.8311 26.7632 42.0082C26.7632 42.0112 26.7632 42.0143 26.7632 42.0173V44.1952C26.7632 51.7488 32.7663 57.7763 40.2883 57.7763C47.8102 57.7763 53.8136 51.7488 53.8136 44.1952V42.0173C53.8136 42.0143 53.8136 42.0112 53.8136 42.0082C53.8014 40.8492 54.7185 39.921 55.8722 39.921C57.026 39.921 57.9412 40.8492 57.9308 42.0082C57.9308 42.0112 57.9308 42.0143 57.9308 42.0173V44.1952C57.9308 53.0894 51.3718 60.4647 42.8618 61.718C42.6789 61.745 42.5118 61.8368 42.3909 61.9767C42.27 62.1166 42.2034 62.2953 42.2033 62.4802V71.8487C42.2033 71.9524 42.1941 72.0561 42.1789 72.1727C42.1602 72.2833 42.1659 72.3965 42.1954 72.5047C42.225 72.6128 42.2778 72.7132 42.3501 72.7988C42.4224 72.8844 42.5125 72.9533 42.6142 73.0005C42.7158 73.0478 42.8265 73.0723 42.9386 73.0724H47.6726C48.7434 73.0724 49.586 73.9124 49.586 74.991C49.586 76.067 48.746 76.9096 47.6726 76.9096H32.9142C31.8434 76.9096 31.0034 76.0695 31.0034 74.991C31.0034 73.915 31.8434 73.0724 32.9142 73.0724H37.6485C37.7605 73.0723 37.8713 73.0478 37.9729 73.0005C38.0745 72.9532 38.1647 72.8844 38.237 72.7988C38.3093 72.7132 38.3621 72.6128 38.3916 72.5047C38.4212 72.3965 38.4268 72.2833 38.4081 72.1727C38.3899 72.069 38.3838 71.9653 38.3838 71.8487V62.4802C38.3836 62.2953 38.3171 62.1166 38.1962 61.9767C38.0753 61.8368 37.9082 61.745 37.7252 61.718C29.2152 60.4657 22.6562 53.0892 22.6562 44.1949V42.0171C22.6561 42.0141 22.656 42.011 22.6559 42.008C22.6407 40.8568 23.54 39.9312 24.6834 39.913L24.6761 39.9133Z" fill="#F5776E"/>
</svg>
