<svg width="82" height="103" viewBox="0 0 82 103" fill="none" xmlns="http://www.w3.org/2000/svg">
<path d="M16.81 20.5C16.81 21.4057 17.5443 22.14 18.45 22.14H32.8C33.7057 22.14 34.44 21.4057 34.44 20.5C34.44 19.5943 33.7057 18.86 32.8 18.86H18.45C17.5443 18.86 16.81 19.5943 16.81 20.5Z" fill="#513264"/>
<path d="M32.8 25.01H18.45C17.5443 25.01 16.81 25.7443 16.81 26.65C16.81 27.5557 17.5443 28.29 18.45 28.29H32.8C33.7057 28.29 34.44 27.5557 34.44 26.65C34.44 25.7443 33.7057 25.01 32.8 25.01Z" fill="#513264"/>
<path d="M32.8 31.16H18.45C17.5443 31.16 16.81 31.8943 16.81 32.8C16.81 33.7057 17.5443 34.44 18.45 34.44H32.8C33.7057 34.44 34.44 33.7057 34.44 32.8C34.44 31.8943 33.7057 31.16 32.8 31.16Z" fill="#513264"/>
<path d="M32.8 37.31H18.45C17.5443 37.31 16.81 38.0443 16.81 38.95C16.81 39.8557 17.5443 40.59 18.45 40.59H32.8C33.7057 40.59 34.44 39.8557 34.44 38.95C34.44 38.0443 33.7057 37.31 32.8 37.31Z" fill="#513264"/>
<path d="M32.8 43.46H18.45C17.5443 43.46 16.81 44.1943 16.81 45.1C16.81 46.0057 17.5443 46.74 18.45 46.74H32.8C33.7057 46.74 34.44 46.0057 34.44 45.1C34.44 44.1943 33.7057 43.46 32.8 43.46Z" fill="#513264"/>
<path d="M32.8 49.61H18.45C17.5443 49.61 16.81 50.3443 16.81 51.25C16.81 52.1557 17.5443 52.89 18.45 52.89H32.8C33.7057 52.89 34.44 52.1557 34.44 51.25C34.44 50.3443 33.7057 49.61 32.8 49.61Z" fill="#513264"/>
<path d="M32.8 55.76H18.45C17.5443 55.76 16.81 56.4943 16.81 57.4C16.81 58.3057 17.5443 59.04 18.45 59.04H32.8C33.7057 59.04 34.44 58.3057 34.44 57.4C34.44 56.4943 33.7057 55.76 32.8 55.76Z" fill="#513264"/>
<path d="M71.7499 8.61H49.2C48.9453 8.61 48.6943 8.66926 48.4664 8.78297L41 12.5162L33.5335 8.78297C33.3057 8.66926 33.0546 8.61 32.8 8.61H10.25C9.3443 8.61 8.60999 9.34432 8.60999 10.25V67.65C8.60999 68.5557 9.3443 69.29 10.25 69.29H32.4128L40.2665 73.217C40.3297 73.2486 40.3971 73.265 40.4629 73.288C40.5047 73.3025 40.5452 73.322 40.5878 73.3331C40.7228 73.3682 40.861 73.39 41 73.39C41.1389 73.39 41.2771 73.3682 41.4122 73.3331C41.4548 73.322 41.4952 73.3025 41.537 73.288C41.6028 73.265 41.6703 73.2486 41.7335 73.217L49.5871 69.29H71.7499C72.6556 69.29 73.3899 68.5557 73.3899 67.65V10.25C73.3899 9.34432 72.6556 8.61 71.7499 8.61ZM39.36 69.0966L33.5335 66.1829C33.3057 66.0692 33.0546 66.01 32.8 66.01H11.89V11.89H32.4128L39.36 15.3634V69.0966ZM70.1099 66.01H49.2C48.9453 66.01 48.6943 66.0692 48.4664 66.1829L42.64 69.0966V15.3634L49.5871 11.89H70.1099V66.01Z" fill="#513264"/>
<path d="M47.56 20.5C47.56 21.4057 48.2943 22.14 49.2 22.14H63.55C64.4557 22.14 65.19 21.4057 65.19 20.5C65.19 19.5943 64.4557 18.86 63.55 18.86H49.2C48.2943 18.86 47.56 19.5943 47.56 20.5Z" fill="#513264"/>
<path d="M63.55 25.01H49.2C48.2943 25.01 47.56 25.7443 47.56 26.65C47.56 27.5557 48.2943 28.29 49.2 28.29H63.55C64.4557 28.29 65.19 27.5557 65.19 26.65C65.19 25.7443 64.4557 25.01 63.55 25.01Z" fill="#513264"/>
<path d="M63.55 31.16H49.2C48.2943 31.16 47.56 31.8943 47.56 32.8C47.56 33.7057 48.2943 34.44 49.2 34.44H63.55C64.4557 34.44 65.19 33.7057 65.19 32.8C65.19 31.8943 64.4557 31.16 63.55 31.16Z" fill="#513264"/>
<path d="M63.55 37.31H49.2C48.2943 37.31 47.56 38.0443 47.56 38.95C47.56 39.8557 48.2943 40.59 49.2 40.59H63.55C64.4557 40.59 65.19 39.8557 65.19 38.95C65.19 38.0443 64.4557 37.31 63.55 37.31Z" fill="#513264"/>
<path d="M63.55 43.46H49.2C48.2943 43.46 47.56 44.1943 47.56 45.1C47.56 46.0057 48.2943 46.74 49.2 46.74H63.55C64.4557 46.74 65.19 46.0057 65.19 45.1C65.19 44.1943 64.4557 43.46 63.55 43.46Z" fill="#513264"/>
<path d="M63.55 49.61H49.2C48.2943 49.61 47.56 50.3443 47.56 51.25C47.56 52.1557 48.2943 52.89 49.2 52.89H63.55C64.4557 52.89 65.19 52.1557 65.19 51.25C65.19 50.3443 64.4557 49.61 63.55 49.61Z" fill="#513264"/>
<path d="M63.55 55.76H49.2C48.2943 55.76 47.56 56.4943 47.56 57.4C47.56 58.3057 48.2943 59.04 49.2 59.04H63.55C64.4557 59.04 65.19 58.3057 65.19 57.4C65.19 56.4943 64.4557 55.76 63.55 55.76Z" fill="#513264"/>
</svg>
