<svg width="34" height="34" viewBox="0 0 34 34" fill="none" xmlns="http://www.w3.org/2000/svg">
<path d="M18.5773 4.76945C16.5315 4.76759 14.5311 5.37253 12.8292 6.50775C11.1272 7.64297 9.80026 9.25746 9.01608 11.147C8.23189 13.0365 8.02574 15.1162 8.42371 17.1229C8.82168 19.1296 9.80588 20.9732 11.2518 22.4204C12.6977 23.8677 14.5404 24.8536 16.5468 25.2534C18.5531 25.6532 20.633 25.4489 22.5232 24.6665C24.4135 23.884 26.0292 22.5585 27.1659 20.8576C28.3027 19.1567 28.9095 17.1569 28.9095 15.1111C28.8971 12.3738 27.8048 9.75198 25.8701 7.81549C23.9354 5.87901 21.3146 4.78436 18.5773 4.76945ZM18.5773 2.83334C21.0056 2.83334 23.3794 3.55342 25.3984 4.90252C27.4175 6.25162 28.9912 8.16915 29.9204 10.4126C30.8497 12.6561 31.0929 15.1247 30.6191 17.5064C30.1454 19.8881 28.976 22.0757 27.259 23.7928C25.5419 25.5099 23.3542 26.6792 20.9725 27.153C18.5909 27.6267 16.1222 27.3836 13.8788 26.4543C11.6353 25.525 9.71776 23.9514 8.36866 21.9323C7.01956 19.9132 6.29948 17.5394 6.29948 15.1111C6.29948 11.8549 7.59303 8.73195 9.89556 6.42942C12.1981 4.12689 15.321 2.83334 18.5773 2.83334Z" fill="#00577F"/>
<path d="M0.944425 31.4406L7.90498 24.4328L9.24609 25.7645L2.28553 32.7722C2.1981 32.8603 2.09417 32.9303 1.97969 32.9782C1.86521 33.0261 1.74241 33.0509 1.61832 33.0514C1.49422 33.0518 1.37126 33.0278 1.25644 32.9807C1.14163 32.9336 1.03721 32.8644 0.949147 32.777C0.861089 32.6895 0.791115 32.5856 0.74322 32.4711C0.695326 32.3566 0.670447 32.2338 0.670009 32.1097C0.66957 31.9856 0.693579 31.8627 0.740663 31.7479C0.787746 31.633 0.856986 31.5286 0.944425 31.4406Z" fill="#00577F"/>
</svg>
