<svg width="24" height="30" viewBox="0 0 24 30" fill="none" xmlns="http://www.w3.org/2000/svg">
<path fill-rule="evenodd" clip-rule="evenodd" d="M5.88745 3.1684C5.80438 3.03939 5.69961 2.93322 5.58008 2.85692C5.46056 2.78062 5.32901 2.73593 5.19414 2.7258C5.05928 2.71567 4.92417 2.74034 4.79777 2.79817C4.67138 2.856 4.55657 2.94568 4.46095 3.06127L3.00595 4.82258C2.32645 5.64513 2.07595 6.81087 2.37445 7.83316C3.60554 12.0683 5.60858 15.9136 8.23495 19.0838C10.8538 22.263 14.0303 24.6878 17.529 26.1781C18.3735 26.5376 19.3365 26.2362 20.016 25.4136L21.471 23.6523C21.5664 23.5364 21.6403 23.3974 21.688 23.2443C21.7356 23.0912 21.7559 22.9276 21.7474 22.7644C21.7389 22.6011 21.7018 22.4419 21.6386 22.2973C21.5755 22.1527 21.4876 22.0259 21.381 21.9255L18.138 18.8713C18.0239 18.764 17.8912 18.6894 17.7498 18.6533C17.6084 18.6171 17.4622 18.6203 17.322 18.6625L14.244 19.594C13.8328 19.7186 13.402 19.7122 12.9935 19.5754C12.585 19.4386 12.2127 19.176 11.913 18.8132L8.45995 14.6315C8.16029 14.2686 7.94338 13.818 7.83034 13.3235C7.71731 12.829 7.71201 12.3075 7.81495 11.8097L8.58445 8.08374C8.61937 7.91403 8.62198 7.73693 8.5921 7.56581C8.56222 7.3947 8.50062 7.23404 8.41195 7.09595L5.88745 3.1684ZM3.40045 1.77932C3.64656 1.4816 3.94214 1.25063 4.2676 1.10173C4.59307 0.952839 4.94096 0.889425 5.28821 0.915697C5.63547 0.94197 5.97413 1.05733 6.28175 1.25412C6.58936 1.45091 6.85889 1.72463 7.07245 2.05713L9.59395 5.98287C10.0575 6.70192 10.221 7.64069 10.038 8.52497L9.26845 12.2528C9.22844 12.4462 9.23048 12.6489 9.27437 12.8411C9.31827 13.0333 9.40253 13.2085 9.51896 13.3495L12.975 17.5295C13.0915 17.6704 13.2362 17.7724 13.395 17.8255C13.5537 17.8787 13.7212 17.8812 13.881 17.8327L16.959 16.9012C17.32 16.7921 17.6968 16.7837 18.0609 16.8768C18.4249 16.97 18.7668 17.1621 19.0605 17.4387L22.3035 20.491C23.469 21.5878 23.577 23.6741 22.533 24.9361L21.078 26.6974C20.0385 27.9557 18.483 28.5096 17.0325 27.8922C13.3221 26.3113 9.95329 23.7395 7.17595 20.3675C4.38991 17.0057 2.26487 12.9277 0.958454 8.436C0.448454 6.68013 0.905954 4.79716 1.94545 3.537L3.40045 1.7775V1.77932Z" fill="#7FFFD4"/>
</svg>
