<svg width="54" height="54" viewBox="0 0 54 54" fill="none" xmlns="http://www.w3.org/2000/svg">
<path d="M27 13.5C25.3312 13.5 23.6999 13.9949 22.3124 14.922C20.9248 15.8491 19.8434 17.1669 19.2048 18.7086C18.5662 20.2504 18.3991 21.9469 18.7246 23.5836C19.0502 25.2203 19.8538 26.7237 21.0338 27.9037C22.2138 29.0837 23.7172 29.8873 25.3539 30.2129C26.9906 30.5384 28.6871 30.3713 30.2289 29.7327C31.7707 29.0941 33.0884 28.0127 34.0155 26.6251C34.9427 25.2376 35.4375 23.6063 35.4375 21.9375C35.4375 19.6997 34.5486 17.5536 32.9662 15.9713C31.3839 14.3889 29.2378 13.5 27 13.5ZM27 27C25.9987 27 25.02 26.7031 24.1874 26.1468C23.3549 25.5905 22.706 24.7999 22.3229 23.8748C21.9397 22.9498 21.8394 21.9319 22.0348 20.9499C22.2301 19.9678 22.7123 19.0658 23.4203 18.3578C24.1283 17.6498 25.0303 17.1676 26.0124 16.9723C26.9944 16.7769 28.0123 16.8772 28.9373 17.2604C29.8624 17.6435 30.653 18.2924 31.2093 19.1249C31.7656 19.9574 32.0625 20.9362 32.0625 21.9375C32.0612 23.2797 31.5274 24.5666 30.5783 25.5157C29.6291 26.4649 28.3423 26.9987 27 27Z" fill="#00577F"/>
<path d="M27 3.375C22.3274 3.375 17.7598 4.76058 13.8747 7.35653C9.98955 9.95248 6.96148 13.6422 5.17336 17.9591C3.38524 22.276 2.91738 27.0262 3.82896 31.609C4.74053 36.1918 6.9906 40.4014 10.2946 43.7054C13.5986 47.0094 17.8082 49.2595 22.391 50.1711C26.9738 51.0826 31.724 50.6148 36.0409 48.8267C40.3578 47.0385 44.0475 44.0105 46.6435 40.1254C49.2394 36.2402 50.625 31.6726 50.625 27C50.6179 20.7365 48.1265 14.7315 43.6975 10.3025C39.2685 5.8735 33.2636 3.38215 27 3.375ZM16.875 44.5112V42.1875C16.8764 40.8453 17.4102 39.5584 18.3593 38.6093C19.3084 37.6601 20.5953 37.1263 21.9375 37.125H32.0625C33.4048 37.1263 34.6917 37.6601 35.6408 38.6093C36.5899 39.5584 37.1237 40.8453 37.125 42.1875V44.5112C34.0524 46.3054 30.5581 47.2508 27 47.2508C23.4419 47.2508 19.9477 46.3054 16.875 44.5112ZM40.4865 42.0626C40.4529 39.8492 39.5511 37.7375 37.9754 36.1827C36.3997 34.6278 34.2762 33.7542 32.0625 33.75H21.9375C19.7238 33.7542 17.6004 34.6278 16.0247 36.1827C14.449 37.7375 13.5471 39.8492 13.5135 42.0626C10.4533 39.3301 8.29531 35.7326 7.32517 31.7464C6.35503 27.7601 6.61855 23.5733 8.08084 19.7401C9.54312 15.907 12.1352 12.6084 15.5138 10.2812C18.8925 7.95397 22.8983 6.70786 27.0009 6.70786C31.1034 6.70786 35.1093 7.95397 38.4879 10.2812C41.8665 12.6084 44.4586 15.907 45.9209 19.7401C47.3832 23.5733 47.6467 27.7601 46.6765 31.7464C45.7064 35.7326 43.5484 39.3301 40.4882 42.0626H40.4865Z" fill="#00577F"/>
</svg>
