<svg width="55" height="55" viewBox="0 0 55 55" fill="none" xmlns="http://www.w3.org/2000/svg">
<path d="M27.5 4.58334C15.0769 4.58334 4.58337 15.0769 4.58337 27.5C4.58337 34.8081 8.23171 41.4288 13.75 45.6592V45.8333H13.9838C17.8063 48.6865 22.4882 50.4167 27.5 50.4167C32.5119 50.4167 37.1938 48.6865 41.0163 45.8333H41.25V45.6592C46.7684 41.4288 50.4167 34.8104 50.4167 27.5C50.4167 15.0769 39.9232 4.58334 27.5 4.58334ZM18.503 43.3744C18.8407 41.8467 19.689 40.4798 20.908 39.4991C22.127 38.5184 23.6439 37.9825 25.2084 37.9798H29.7917C31.3561 37.9829 32.8728 38.519 34.0917 39.4996C35.3106 40.4803 36.159 41.8469 36.4971 43.3744C33.8205 44.9258 30.745 45.8333 27.5 45.8333C24.255 45.8333 21.1796 44.9258 18.503 43.3744ZM40.3563 40.4273C39.4822 38.3462 38.0136 36.5691 36.1344 35.3185C34.2553 34.0679 32.049 33.3993 29.7917 33.3965H25.2084C22.9511 33.3993 20.7448 34.0679 18.8657 35.3185C16.9865 36.5691 15.5179 38.3462 14.6438 40.4273C11.2819 37.0838 9.16671 32.4867 9.16671 27.5C9.16671 17.5611 17.5611 9.16668 27.5 9.16668C37.439 9.16668 45.8334 17.5611 45.8334 27.5C45.8334 32.4867 43.7182 37.0838 40.3563 40.4273Z" fill="#5F5F5F"/>
<path d="M27.5 13.75C22.275 13.75 18.3334 17.6917 18.3334 22.9167C18.3334 28.1417 22.275 32.0833 27.5 32.0833C32.725 32.0833 36.6667 28.1417 36.6667 22.9167C36.6667 17.6917 32.725 13.75 27.5 13.75ZM27.5 27.5C24.8005 27.5 22.9167 25.6162 22.9167 22.9167C22.9167 20.2171 24.8005 18.3333 27.5 18.3333C30.1996 18.3333 32.0834 20.2171 32.0834 22.9167C32.0834 25.6162 30.1996 27.5 27.5 27.5Z" fill="#5F5F5F"/>
</svg>
