<svg width="57" height="59" viewBox="0 0 57 59" fill="none" xmlns="http://www.w3.org/2000/svg">
<g filter="url(#filter0_d)">
<path d="M13.148 5.36167C13.5316 5.1696 13.9631 5.08132 14.3956 5.10644C14.8282 5.13156 15.2452 5.26911 15.6014 5.50415L46.4764 25.8575C46.7909 26.0666 47.0478 26.3449 47.2252 26.6687C47.4025 26.9925 47.4952 27.3524 47.4952 27.7176C47.4952 28.0829 47.4025 28.4427 47.2252 28.7666C47.0478 29.0904 46.7909 29.3687 46.4764 29.5777L15.6014 49.9311C15.2451 50.1659 14.8281 50.3033 14.3956 50.3286C13.9632 50.3539 13.5316 50.2661 13.1478 50.0746C12.764 49.8832 12.4425 49.5954 12.2182 49.2424C11.9938 48.8894 11.8752 48.4847 11.875 48.0722V7.36535C11.8749 6.95255 11.9935 6.5476 12.2179 6.1944C12.4423 5.84119 12.764 5.55322 13.148 5.36167ZM16.625 43.755L40.9521 27.7188L16.625 11.6825V43.755Z" fill="white"/>
</g>
<defs>
<filter id="filter0_d" x="-4" y="0.580887" width="65" height="62.2757" filterUnits="userSpaceOnUse" color-interpolation-filters="sRGB">
<feFlood flood-opacity="0" result="BackgroundImageFix"/>
<feColorMatrix in="SourceAlpha" type="matrix" values="0 0 0 0 0 0 0 0 0 0 0 0 0 0 0 0 0 0 127 0"/>
<feOffset dy="4"/>
<feGaussianBlur stdDeviation="2"/>
<feColorMatrix type="matrix" values="0 0 0 0 0 0 0 0 0 0 0 0 0 0 0 0 0 0 0.25 0"/>
<feBlend mode="normal" in2="BackgroundImageFix" result="effect1_dropShadow"/>
<feBlend mode="normal" in="SourceGraphic" in2="effect1_dropShadow" result="shape"/>
</filter>
</defs>
</svg>
